<svg id="Layer_1" data-name="Layer 1" xmlns="http://www.w3.org/2000/svg" viewBox="0 0 502 309"><defs><style>.cls-1{fill:#90ee90;stroke:#a67c52;}.cls-1,.cls-2,.cls-3,.cls-5,.cls-6,.cls-7{stroke-miterlimit:10;}.cls-2{fill:#888;stroke-width:3px;}.cls-2,.cls-3{stroke:#fff;}.cls-3,.cls-6{fill:none;}.cls-3{stroke-width:2px;}.cls-4,.cls-7{fill:#9f7548;}.cls-5{fill:#7d5a3a;}.cls-5,.cls-6{stroke:#664a32;}.cls-7{stroke:#9f7548;stroke-width:3.5px;}</style></defs><rect class="cls-1" x="0.5" y="0.5" width="501" height="308"/><rect class="cls-2" x="13.5" y="12.5" width="478" height="285"/><line class="cls-3" x1="250.5" y1="12.5" x2="250.5" y2="297.5"/><circle class="cls-3" cx="250.5" cy="154.5" r="35"/><circle class="cls-3" cx="107.5" cy="155.5" r="35"/><path class="cls-3" d="M216.67,142l1.53.68,1.14.52C266.73,165,299,208.23,299,258c0,50-32.56,93.39-80.29,115.14h0" transform="translate(-139 -103)"/><path class="cls-3" d="M215.73,141.54" transform="translate(-139 -103)"/><path class="cls-3" d="M214.27,140.92" transform="translate(-139 -103)"/><line class="cls-3" x1="14" y1="39" x2="78" y2="39"/><line class="cls-3" x1="14" y1="270" x2="80" y2="270"/><rect class="cls-3" x="13" y="110" width="95" height="88"/><rect class="cls-3" x="23" y="139" width="2" height="31" rx="0.38"/><circle class="cls-3" cx="31.5" cy="154.5" r="7.5"/><circle class="cls-3" cx="396.5" cy="155.5" r="35"/><path class="cls-3" d="M565.33,142l-1.53.68-1.14.52C515.27,165,483,208.23,483,258c0,50,32.56,93.39,80.29,115.14h0" transform="translate(-139 -103)"/><path class="cls-3" d="M566.27,141.54" transform="translate(-139 -103)"/><path class="cls-3" d="M567.73,140.92" transform="translate(-139 -103)"/><line class="cls-3" x1="490" y1="39" x2="426" y2="39"/><line class="cls-3" x1="490" y1="270" x2="424" y2="270"/><rect class="cls-3" x="535" y="213" width="95" height="88" transform="translate(1026 411) rotate(-180)"/><rect class="cls-3" x="618" y="242" width="2" height="31" rx="0.38" transform="translate(1099 412) rotate(-180)"/><circle class="cls-3" cx="472.5" cy="154.5" r="7.5"/><rect class="cls-4" x="171" y="87" width="43" height="43"/><rect class="cls-5" x="175.12" y="90.53" width="35.34" height="35.34"/><line class="cls-6" x1="181.31" y1="90.53" x2="181.31" y2="125.88"/><line class="cls-6" x1="187.2" y1="90.53" x2="187.2" y2="125.88"/><line class="cls-6" x1="193.09" y1="90.53" x2="193.09" y2="125.88"/><line class="cls-6" x1="198.39" y1="90.53" x2="198.39" y2="125.88"/><line class="cls-6" x1="204.28" y1="90.53" x2="204.28" y2="125.88"/><line class="cls-7" x1="173.5" y1="88.5" x2="212.5" y2="127.5"/><rect class="cls-4" x="404" y="55" width="43" height="43"/><rect class="cls-5" x="408.12" y="58.53" width="35.34" height="35.34"/><line class="cls-6" x1="414.31" y1="58.53" x2="414.31" y2="93.88"/><line class="cls-6" x1="420.2" y1="58.53" x2="420.2" y2="93.88"/><line class="cls-6" x1="426.09" y1="58.53" x2="426.09" y2="93.88"/><line class="cls-6" x1="431.39" y1="58.53" x2="431.39" y2="93.88"/><line class="cls-6" x1="437.28" y1="58.53" x2="437.28" y2="93.88"/><line class="cls-7" x1="406.5" y1="56.5" x2="445.5" y2="95.5"/><rect class="cls-4" x="141" y="240" width="43" height="43"/><rect class="cls-5" x="145.12" y="243.53" width="35.34" height="35.34"/><line class="cls-6" x1="151.31" y1="243.53" x2="151.31" y2="278.88"/><line class="cls-6" x1="157.2" y1="243.53" x2="157.2" y2="278.88"/><line class="cls-6" x1="163.09" y1="243.53" x2="163.09" y2="278.88"/><line class="cls-6" x1="168.39" y1="243.53" x2="168.39" y2="278.88"/><line class="cls-6" x1="174.28" y1="243.53" x2="174.28" y2="278.88"/><line class="cls-7" x1="143.5" y1="241.5" x2="182.5" y2="280.5"/><rect class="cls-4" x="429" y="214" width="43" height="43"/><rect class="cls-5" x="433.12" y="217.53" width="35.34" height="35.34"/><line class="cls-6" x1="439.31" y1="217.53" x2="439.31" y2="252.88"/><line class="cls-6" x1="445.2" y1="217.53" x2="445.2" y2="252.88"/><line class="cls-6" x1="451.09" y1="217.53" x2="451.09" y2="252.88"/><line class="cls-6" x1="456.39" y1="217.53" x2="456.39" y2="252.88"/><line class="cls-6" x1="462.28" y1="217.53" x2="462.28" y2="252.88"/><line class="cls-7" x1="431.5" y1="215.5" x2="470.5" y2="254.5"/><rect class="cls-4" x="291" y="198" width="43" height="43"/><rect class="cls-5" x="295.12" y="201.53" width="35.34" height="35.34"/><line class="cls-6" x1="301.31" y1="201.53" x2="301.31" y2="236.88"/><line class="cls-6" x1="307.2" y1="201.53" x2="307.2" y2="236.88"/><line class="cls-6" x1="313.09" y1="201.53" x2="313.09" y2="236.88"/><line class="cls-6" x1="318.39" y1="201.53" x2="318.39" y2="236.88"/><line class="cls-6" x1="324.28" y1="201.53" x2="324.28" y2="236.88"/><line class="cls-7" x1="293.5" y1="199.5" x2="332.5" y2="238.5"/><rect class="cls-4" x="82" y="38" width="43" height="43"/><rect class="cls-5" x="86.12" y="41.53" width="35.34" height="35.34"/><line class="cls-6" x1="92.31" y1="41.53" x2="92.31" y2="76.88"/><line class="cls-6" x1="98.2" y1="41.53" x2="98.2" y2="76.88"/><line class="cls-6" x1="104.09" y1="41.53" x2="104.09" y2="76.88"/><line class="cls-6" x1="109.39" y1="41.53" x2="109.39" y2="76.88"/><line class="cls-6" x1="115.28" y1="41.53" x2="115.28" y2="76.88"/><line class="cls-7" x1="84.5" y1="39.5" x2="123.5" y2="78.5"/></svg>